name D:\school\WTK\thesis\model\3dpredictsim\Results\MidTarsalJoint\Fal_s1_bCst_PF_Natali2010_ls150_MT_k30_MTP_T5_ig24_PFx10.mot
datacolumns 128
datarows 4
range 0.00000000 0.03330570
endheader
time	pelvis_tilt	pelvis_list	pelvis_rotation	pelvis_tx	pelvis_ty	pelvis_tz	hip_flexion_l	hip_adduction_l	hip_rotation_l	hip_flexion_r	hip_adduction_r	hip_rotation_r	knee_angle_l	knee_angle_r	ankle_angle_l	ankle_angle_r	subtalar_angle_l	subtalar_angle_r	mtj_angle_l	mtj_angle_r	mtp_angle_l	mtp_angle_r	lumbar_extension	lumbar_bending	lumbar_rotation	arm_flex_l	arm_add_l	arm_rot_l	arm_flex_r	arm_add_r	arm_rot_r	elbow_flex_l	elbow_flex_r	pro_sup_l	pro_sup_r	glut_med1_l/activation	glut_med2_l/activation	glut_med3_l/activation	glut_min1_l/activation	glut_min2_l/activation	glut_min3_l/activation	semimem_l/activation	semiten_l/activation	bifemlh_l/activation	bifemsh_l/activation	sar_l/activation	add_long_l/activation	add_brev_l/activation	add_mag1_l/activation	add_mag2_l/activation	add_mag3_l/activation	tfl_l/activation	pect_l/activation	grac_l/activation	glut_max1_l/activation	glut_max2_l/activation	glut_max3_l/activation	iliacus_l/activation	psoas_l/activation	quad_fem_l/activation	gem_l/activation	peri_l/activation	rect_fem_l/activation	vas_med_l/activation	vas_int_l/activation	vas_lat_l/activation	med_gas_l/activation	lat_gas_l/activation	soleus_l/activation	tib_post_l/activation	flex_dig_l/activation	flex_hal_l/activation	tib_ant_l/activation	per_brev_l/activation	per_long_l/activation	per_tert_l/activation	ext_dig_l/activation	ext_hal_l/activation	ercspn_l/activation	intobl_l/activation	extobl_l/activation	glut_med1_r/activation	glut_med2_r/activation	glut_med3_r/activation	glut_min1_r/activation	glut_min2_r/activation	glut_min3_r/activation	semimem_r/activation	semiten_r/activation	bifemlh_r/activation	bifemsh_r/activation	sar_r/activation	add_long_r/activation	add_brev_r/activation	add_mag1_r/activation	add_mag2_r/activation	add_mag3_r/activation	tfl_r/activation	pect_r/activation	grac_r/activation	glut_max1_r/activation	glut_max2_r/activation	glut_max3_r/activation	iliacus_r/activation	psoas_r/activation	quad_fem_r/activation	gem_r/activation	peri_r/activation	rect_fem_r/activation	vas_med_r/activation	vas_int_r/activation	vas_lat_r/activation	med_gas_r/activation	lat_gas_r/activation	soleus_r/activation	tib_post_r/activation	flex_dig_r/activation	flex_hal_r/activation	tib_ant_r/activation	per_brev_r/activation	per_long_r/activation	per_tert_r/activation	ext_dig_r/activation	ext_hal_r/activation	ercspn_r/activation	intobl_r/activation	extobl_r/activation	
          0.00000000	         -2.92841835	         -2.06230443	          4.57293797	          0.00000000	          0.92183495	         -0.00088795	        -16.38237208	         -0.82218127	          5.89536392	         28.99027957	          3.20441484	         -2.53516392	         -6.89183790	        -10.74645352	          3.00493614	          5.79239200	         10.08421713	         -2.55472905	          1.43573820	         -1.47918842	         -0.75311303	          1.93527335	         -2.50046655	          0.32929231	         -2.09608066	          4.38782361	        -13.44980087	         14.20930922	         -4.84592296	        -13.45642699	          4.45408417	         35.25690377	         18.95444682	         86.51662706	         86.51662706	          0.32863793	          0.11741825	          0.08320684	          0.35476179	          0.23742891	          0.12729625	          0.05000249	          0.05000067	          0.05000060	          0.06989320	          0.13015560	          0.05000019	          0.05000018	          0.05000027	          0.05000074	          0.05000073	          0.36972964	          0.05000080	          0.05000080	          0.05140638	          0.05006296	          0.05000190	          0.43237366	          0.65028815	          0.05000104	          0.05015451	          0.05925249	          0.22246569	          0.05000059	          0.05000062	          0.05000061	          0.33798339	          0.45426257	          0.36808693	          0.26835543	          0.25407142	          0.32336475	          0.05000018	          0.09926267	          0.20072059	          0.05000071	          0.05000021	          0.05000078	          0.05000003	          0.05000002	          0.05000004	          0.07021468	          0.05000099	          0.05925156	          0.05000041	          0.05000058	          0.05000470	          0.12231388	          0.07021648	          0.22244036	          0.05000212	          0.05000213	          0.14810287	          0.18919298	          0.15733131	          0.15282673	          0.11380100	          0.05925120	          0.05036295	          0.12704907	          0.05925254	          0.05925448	          0.09892770	          0.05000023	          0.05000035	          0.19126420	          0.05000108	          0.05000153	          0.05000027	          0.05314079	          0.05680808	          0.05008077	          0.05000052	          0.05000091	          0.05000020	          0.05925086	          0.05001592	          0.05547978	          0.41549007	          0.21514341	          0.18557147	          0.06889530	          0.39629092	          0.11235898	          0.07021499	          0.12143979	          0.11629251	
          0.01110190	         -2.93017637	         -2.14374357	          4.83581860	          0.01632705	          0.92106629	         -0.00068236	        -16.27833951	         -1.08140176	          5.74203228	         28.34883253	          3.59475612	         -2.33087163	         -8.73464993	        -10.33193408	          2.50140468	          5.36883828	         10.83849625	         -2.88684978	          1.00851537	         -1.44298960	          0.12030968	          1.80884733	         -2.33375747	          0.52834276	         -2.16868581	          4.12384149	        -13.45408793	         14.50187679	         -5.56670248	        -13.45329850	          4.20070082	         36.39553978	         18.49521634	         86.51662706	         86.51662706	          0.27732488	          0.09908455	          0.07021494	          0.29936934	          0.20035679	          0.10742025	          0.05000236	          0.05000070	          0.05000043	          0.05898019	          0.10983341	          0.09695187	          0.07467326	          0.05003036	          0.05005509	          0.05000255	          0.31200082	          0.08475849	          0.05001196	          0.05000313	          0.05000162	          0.05000314	          0.36486353	          0.61288228	          0.05000063	          0.05000091	          0.05000098	          0.18776513	          0.05001074	          0.05000891	          0.05000583	          0.28521048	          0.38333414	          0.34644602	          0.26327421	          0.23529434	          0.32050203	          0.05000010	          0.08389936	          0.20594858	          0.05000061	          0.05000016	          0.05000054	          0.05000009	          0.05000139	          0.05724292	          0.05925158	          0.05925165	          0.05000033	          0.05925185	          0.05925181	          0.05923259	          0.10902149	          0.05925323	          0.20501465	          0.05000062	          0.05000049	          0.15317704	          0.34685512	          0.13276760	          0.19231550	          0.11361208	          0.05000033	          0.08338076	          0.10827761	          0.05000123	          0.05000263	          0.15027896	          0.05869074	          0.05000072	          0.28004122	          0.26936845	          0.12728876	          0.05772465	          0.15746260	          0.15639538	          0.13847096	          0.05389564	          0.05209131	          0.05538057	          0.05000008	          0.05000194	          0.05000070	          0.53235758	          0.24147486	          0.15659649	          0.16787964	          0.46490550	          0.20527883	          0.05925159	          0.10247812	          0.09813455	
          0.02220380	         -2.92768287	         -2.22549356	          5.07209012	          0.03298946	          0.92033711	         -0.00047817	        -16.08121168	         -1.33954790	          5.58918640	         27.61108602	          3.94985072	         -2.08153423	        -10.74387371	        -10.40998402	          1.86591217	          4.71028524	         11.58670449	         -3.19528093	          0.43572529	         -1.43765629	          1.33289622	          1.67200066	         -2.14288053	          0.73710708	         -2.23181435	          3.77260796	        -13.45843850	         14.71523886	         -6.32159933	        -13.45464530	          3.98598683	         37.52903213	         18.08697909	         86.51662706	         86.51662706	          0.23402331	          0.08361348	          0.05925167	          0.25262587	          0.16907312	          0.09064771	          0.05004063	          0.05000215	          0.05000334	          0.05000038	          0.09268439	          0.18124553	          0.06301474	          0.05936952	          0.05925767	          0.05925856	          0.26328529	          0.07680195	          0.05009547	          0.05008013	          0.05009380	          0.05924636	          0.30789370	          0.56463346	          0.05904025	          0.05925177	          0.05924830	          0.16405359	          0.10501949	          0.11033307	          0.12475993	          0.24067754	          0.32348016	          0.29235181	          0.23191988	          0.19855673	          0.27046028	          0.05000010	          0.07079978	          0.21055533	          0.05000041	          0.05000012	          0.05000049	          0.06317453	          0.06300159	          0.05925153	          0.05000006	          0.05000021	          0.11149304	          0.05000028	          0.05000028	          0.05000028	          0.09199927	          0.05000182	          0.17300366	          0.05000059	          0.05148684	          0.12926021	          0.31875082	          0.35869740	          0.23356282	          0.11869100	          0.05000128	          0.07063007	          0.14729110	          0.05385408	          0.08482008	          0.12681549	          0.05000043	          0.05925191	          0.48518294	          0.22730917	          0.10741393	          0.05941961	          0.16673765	          0.16782710	          0.13959694	          0.05925295	          0.05965259	          0.05000027	          0.05925193	          0.05002787	          0.05925170	          0.48979196	          0.28863806	          0.19450225	          0.14166702	          0.43173613	          0.17322664	          0.05000006	          0.08647713	          0.08281177	
          0.03330570	         -2.92153002	         -2.31274586	          5.28010411	          0.04991209	          0.91966166	         -0.00029982	        -15.80657728	         -1.59933480	          5.42752891	         26.74564589	          4.20449804	         -1.80307129	        -12.86779975	        -10.68436340	          1.04671418	          4.17302690	         12.30564186	         -3.51810401	         -0.27556356	         -1.50890345	          2.90389879	          1.76055312	         -1.93371267	          0.95888614	         -2.28338173	          3.34745508	        -13.45797288	         14.85711767	         -7.09111791	        -13.46553062	          3.82967296	         38.64736978	         17.71165447	         86.51662706	         86.51662706	          0.31005299	          0.07055811	          0.05000054	          0.30595322	          0.14267441	          0.07649409	          0.05000270	          0.05000051	          0.05000038	          0.05000126	          0.08316751	          0.15294593	          0.05317584	          0.05009978	          0.05000584	          0.05000621	          0.31402787	          0.06481994	          0.05000173	          0.05000297	          0.05000221	          0.05000125	          0.25981987	          0.53253309	          0.05000037	          0.05000171	          0.05000052	          0.13843838	          0.08862183	          0.09310575	          0.10527997	          0.20309799	          0.27297178	          0.24670381	          0.19570794	          0.16755443	          0.22823086	          0.05000009	          0.09120954	          0.22087548	          0.05000046	          0.05000027	          0.05000051	          0.05489700	          0.05316450	          0.05000020	          0.24932759	          0.25131115	          0.31519179	          0.38723560	          0.23932572	          0.23355149	          0.08615550	          0.05036647	          0.14724803	          0.05968347	          0.05000172	          0.10907753	          0.26898099	          0.30269040	          0.19709464	          0.11370223	          0.05000109	          0.05960335	          0.12429379	          0.05000102	          0.09099782	          0.10701499	          0.05000192	          0.05000087	          0.40942627	          0.19181728	          0.23656526	          0.05014189	          0.14070364	          0.14162304	          0.11780062	          0.05000137	          0.05033867	          0.05262860	          0.05000055	          0.05000115	          0.05000193	          0.56596513	          0.29378718	          0.16413288	          0.36239376	          0.50305362	          0.15270202	          0.06440760	          0.10773953	          0.06988151	
